/vscmnt/brussel_pixiu_data/_data_brussel/112/vsc11236/PredSimResults/SUBJ06opt3D/weighted-LRposFixed/trackIG/worker_01.mot
version=1
nRows=8
nColumns=50
inDegrees=yes
endheader
                time	         pelvis_tilt	         pelvis_list	     pelvis_rotation	           pelvis_tx	           pelvis_ty	           pelvis_tz	       hip_flexion_r	     hip_adduction_r	      hip_rotation_r	        knee_angle_r	       ankle_angle_r	         mtp_angle_r	       hip_flexion_l	     hip_adduction_l	      hip_rotation_l	        knee_angle_l	       ankle_angle_l	         mtp_angle_l	    lumbar_extension	      lumbar_bending	     lumbar_rotation	 ercspn_r/activation	 intobl_r/activation	 extobl_r/activation	    abd_r/activation	    add_r/activation	hamstrings_r/activation	bifemsh_r/activation	glut_max_r/activation	iliopsoas_r/activation	rect_fem_r/activation	  vasti_r/activation	gastroc_r/activation	 soleus_r/activation	tib_ant_r/activation	 ercspn_l/activation	 intobl_l/activation	 extobl_l/activation	    abd_l/activation	    add_l/activation	hamstrings_l/activation	bifemsh_l/activation	glut_max_l/activation	iliopsoas_l/activation	rect_fem_l/activation	  vasti_l/activation	gastroc_l/activation	 soleus_l/activation	tib_ant_l/activation	
          1.19883004	         -6.08053074	         -0.94276675	          5.09425385	          1.40263115	          0.92759271	         -0.01098731	         32.64841917	         -1.30742057	         -7.90150454	         -8.91134573	          0.32980941	          0.23586675	        -10.92014654	         -0.85348100	         -6.16341347	        -10.51824148	          8.62254613	         33.35821959	         -5.65638080	         -0.11609366	         -8.14982061	          0.17900545	          0.15513969	          0.01000068	          0.01000007	          0.42416900	          0.06716911	          0.11873836	          0.07227375	          0.11058173	          0.01000307	          0.01000039	          0.01000097	          0.01000015	          0.52633218	          0.17109620	          0.01000013	          0.01000036	          0.07417702	          0.01000267	          0.01000111	          0.23982659	          0.01439583	          0.62362582	          0.01514828	          0.01000056	          0.23952292	          0.37419764	          0.02289577	
          1.21081834	         -6.15371888	         -0.93013673	          5.12557654	          1.41969978	          0.92583046	         -0.01027930	         32.80709844	         -1.21263776	         -7.71204155	        -10.88031050	          0.07658065	          0.20298561	        -11.34040039	         -1.02706598	         -6.52758739	        -11.45177073	          7.58337844	         35.28234625	         -5.32649474	          0.26994378	         -8.63544456	          0.14919593	          0.12930448	          0.01000072	          0.01000025	          0.35353597	          0.07338550	          0.09896511	          0.10647763	          0.09216645	          0.01000085	          0.01000098	          0.01441117	          0.01465806	          0.54254224	          0.16838715	          0.01000015	          0.01000048	          0.06182425	          0.01000803	          0.01010881	          0.21649096	          0.01199909	          0.60902661	          0.01262674	          0.01000113	          0.19963590	          0.34814019	          0.01908292	
          1.22280664	         -6.20414435	         -0.95803710	          5.13094549	          1.43712737	          0.92433565	         -0.00946491	         32.77611298	         -1.12302503	         -7.54555842	        -12.66206446	         -0.15038335	          0.19163649	        -11.59194703	         -1.27849811	         -6.89564590	        -12.74828872	          6.41213680	         37.24818050	         -4.97935715	          0.69906164	         -9.07458335	          0.15744547	          0.10777137	          0.01000086	          0.05763411	          0.33944685	          0.07350104	          0.08248475	          0.13067655	          0.07681788	          0.01000076	          0.01000481	          0.01201146	          0.01221709	          0.59494538	          0.16402750	          0.01000013	          0.01000055	          0.05152860	          0.01000206	          0.01000336	          0.21251908	          0.01000109	          0.60052535	          0.01052589	          0.01000041	          0.16639043	          0.32123701	          0.01590503	
          1.23479494	         -6.23299022	         -0.99892634	          5.10344963	          1.45470103	          0.92318654	         -0.00851687	         32.63909607	         -1.02986828	         -7.54187544	        -14.27382591	         -0.51380568	          0.17126788	        -11.60451164	         -1.58541718	         -7.27849014	        -14.50338132	          5.07021542	         39.24759701	         -4.64210686	          1.13716404	         -9.45567147	          0.16120247	          0.08982413	          0.01000065	          0.10025483	          0.32492129	          0.07493834	          0.06874893	          0.13540558	          0.06402533	          0.01000053	          0.07157583	          0.01001145	          0.01018264	          0.64142999	          0.19176844	          0.01000010	          0.01000037	          0.04294749	          0.01000166	          0.01000298	          0.19841454	          0.01000028	          0.50179637	          0.01000324	          0.01000019	          0.13868129	          0.27487992	          0.01325636	
          1.24678324	         -6.24175987	         -1.06036262	          5.04831906	          1.47227176	          0.92249864	         -0.00745145	         32.41384559	         -0.91702163	         -7.64054497	        -15.78251819	         -0.70132740	          0.13091892	        -11.33731892	         -1.96242132	         -7.67976187	        -16.75172342	          3.50829681	         41.20875091	         -4.32567122	          1.59188341	         -9.77675590	          0.15407272	          0.07486564	          0.01000068	          0.14595731	          0.29833777	          0.07348352	          0.05730060	          0.15860267	          0.05336313	          0.01000046	          0.12977493	          0.01000046	          0.01000011	          0.66478111	          0.22573825	          0.01000014	          0.01000042	          0.03579540	          0.01000287	          0.01001711	          0.16583159	          0.01000032	          0.41823197	          0.01000162	          0.01000014	          0.11558657	          0.22910391	          0.01104879	
          1.25877154	         -6.23402441	         -1.15155149	          4.97307595	          1.48965901	          0.92242198	         -0.00628304	         32.11462019	         -0.76031181	         -7.74971906	        -17.24748299	         -0.39708495	          0.11250670	        -10.75453746	         -2.42591817	         -8.09164539	        -19.50897098	          1.70163538	         42.93766340	         -4.04183682	          2.07033051	        -10.04162336	          0.14686288	          0.06239820	          0.01000071	          0.19102196	          0.26219994	          0.07429089	          0.04775878	          0.14142193	          0.04447652	          0.01000045	          0.22179167	          0.01000068	          0.01000021	          0.61000073	          0.25601044	          0.01000021	          0.01000041	          0.02983436	          0.07007207	          0.08853030	          0.15507494	          0.01000025	          0.34858348	          0.01000088	          0.01000008	          0.09633784	          0.19095098	          0.01000012	
          1.27075985	         -6.21533783	         -1.26394653	          4.88396192	          1.50669796	          0.92310672	         -0.00504048	         31.69101810	         -0.54510787	         -7.78390277	        -18.56117590	          0.47192241	          0.22787819	         -9.82752567	         -2.97190792	         -8.52081200	        -22.78060416	         -0.29642027	         44.02971693	         -3.80064185	          2.56073174	        -10.25526872	          0.13167209	          0.05200698	          0.01000075	          0.21844286	          0.23911297	          0.07245086	          0.03980594	          0.11798382	          0.03706981	          0.01000040	          0.28628363	          0.01000125	          0.01000032	          0.51426040	          0.26988803	          0.01000026	          0.01000053	          0.02486602	          0.16647489	          0.11933421	          0.13357451	          0.01000017	          0.29053357	          0.01000066	          0.01000006	          0.08029462	          0.15915170	          0.01000016	
          1.28274815	         -6.19112874	         -1.36902239	          4.77803185	          1.52327217	          0.92464640	         -0.00375955	         31.07456030	         -0.29120631	         -7.74753066	        -19.52800803	          1.58435283	          0.53761888	         -8.54577888	         -3.57689357	         -8.97699994	        -26.56364184	         -2.37224618	         43.98933716	         -3.61117268	          3.03149735	        -10.41514455	          0.12350770	          0.04334622	          0.01000082	          0.22539179	          0.21690224	          0.07409136	          0.03317750	          0.09833671	          0.03089655	          0.01000033	          0.30657535	          0.01000095	          0.01000022	          0.42862205	          0.26660957	          0.01000038	          0.01000064	          0.02072506	          0.22787939	          0.13476778	          0.11147043	          0.01000017	          0.24215077	          0.01000066	          0.01000005	          0.06692310	          0.13264798	          0.01000011	
